<?xml version="1.0" encoding="UTF-8"?>
<svg width="151px" height="180px" viewBox="0 0 151 180" version="1.1" xmlns="http://www.w3.org/2000/svg" xmlns:xlink="http://www.w3.org/1999/xlink">
    <title>asset_hand_2</title>
    <g id="Page-1" stroke="none" stroke-width="1" fill="none" fill-rule="evenodd">
        <g id="asset_hand_2">
            <g transform="translate(75.500000, 90.500000) scale(-1, 1) translate(-75.500000, -90.500000) translate(10.000000, 15.000000)">
                <path d="M2.5539652,18.6892342 C-0.0572666796,25.7595187 0.726898008,32.9143999 4.90645926,40.1538778 C9.08602051,47.3933558 14.205509,51.9341787 20.2649247,53.7763465 L26.7008855,63.3945285 L36.9192714,83.9050254 L43.62269,107.266389 L50.3905972,125.259331 C55.4193492,130.471158 57.9337251,133.077072 57.9337251,133.077072 C57.9337251,133.077072 58.2509637,135.144994 58.8854409,139.280838 L63.7431919,146.177938 L68.466408,148 L73.8135299,148 L80.0128221,143.671537 L84.6272473,136.029106 L88.4644063,136.915408 L94.6209413,133.077072 L97.6960286,126.10433 L99.2980608,116.242848 L99.2980608,105.730399 L97.6960286,90.1093523 L94.6209413,76.3511191 L93.383898,68.9921831 L100.437323,73.6635556 L110.198665,76.3511191 L121.286632,73.6635556 L127.047838,68.1501293 L128,60.4970483 L123.702724,53.7763465 L116.723555,50.2982686 L104.851546,45.2277135 L97.6960286,40.1538778 L91.8042589,35.2262969 L86.8890995,30.710271 L80.9086318,26.8876812 L75.5868118,22.9741791 L71.561238,16.9132547 L66.6840936,13.2501036 L59.5606009,8.85364872 L51.9835575,6.23835644 L47.001517,7.358072 C45.5431935,7.358072 44.4169178,7.358072 43.62269,7.358072 C42.8284622,7.358072 40.5939893,6.31658831 36.9192714,4.23362094 L31.3671437,3 L24.233675,4.23362094 L20.2649247,4.23362094 L16.7642129,3 L12.1493719,4.23362094 L8.08744354,7.358072 L4.90645926,9.87236726 L2.5539652,14.6647111 L2.5539652,18.6892342 Z" id="Path-53" fill="#000000"></path>
                <path d="M19.1367126,50.5095563 C17.5910887,46.2430095 16.230795,41.6524739 15.0549069,36.7381441 C14.7978643,35.6638988 15.4603379,34.5846768 16.5345832,34.3276342 C17.6088284,34.0705916 18.6880505,34.7330652 18.9450931,35.8073104 C21.7176038,47.3943247 25.5247779,57.0548718 30.3532118,64.7917736 C33.4988379,69.8322073 36.6624126,77.5062892 39.9404598,87.4363417 C41.4195204,91.9167985 42.841615,96.6045722 44.3886592,101.993795 C44.9849702,104.07108 47.0170984,111.301682 47.3919248,112.580489 C50.9753864,124.806299 55.2580588,131.187908 62.8462675,132.217252 C70.9308638,133.31393 75.065179,116.520848 69.3611848,100.202557 C65.374762,88.797986 62.5130989,81.7636094 60.9073723,79.3266589 C60.2996305,78.4043121 60.5546682,77.1639302 61.477015,76.5561883 C62.3993618,75.9484465 63.6397437,76.2034842 64.2474855,77.125831 C66.1083298,79.9499639 69.0278265,87.1265037 73.1371523,98.8826822 C79.6586943,117.539857 74.6570266,137.85602 62.3085904,136.18095 C61.2518125,136.037598 60.2405676,135.807005 59.2731472,135.492261 C60.1664425,141.339581 62.9005265,144.734872 67.5235386,146.010262 C75.8692353,148.312662 83.9994903,135.777803 82.895839,117.800429 C82.0722686,104.385292 80.3883792,93.7394442 77.8624818,85.8850229 C77.5243203,84.8334904 78.1026217,83.7069208 79.1541542,83.3687593 C80.2056867,83.0305978 81.3322563,83.6088992 81.6704178,84.6604317 C84.3127963,92.8770578 86.0459942,103.834643 86.8883225,117.555325 C87.2663973,123.713786 86.6180018,129.409091 85.2022948,134.264458 C86.5134194,134.178855 87.9236836,133.759936 89.2826372,132.8518 C92.4542671,130.732322 94.7185103,126.319323 95.5016768,118.837457 C96.6862419,107.520889 95.7493132,95.6979269 93.3393731,82.6174377 C92.9680702,80.6021082 92.5854353,78.6756973 92.1079937,76.3766141 C92.0230576,75.9676113 91.9376715,75.5588395 91.829069,75.0406991 C91.6957337,74.4050171 91.6243447,74.0646732 91.5694804,73.8025103 C91.3696843,72.8478068 91.2383898,72.2105464 91.1233871,71.632133 C90.8851202,70.4337541 90.6690783,69.3145218 90.2941848,67.3489968 C90.2677148,67.2101771 90.2441506,67.086598 90.222904,66.9751778 C90.0947117,66.6882867 90.0389655,66.3809508 90.0517377,66.0779927 C88.3882777,57.3705229 87.4704935,53.4800174 86.3406846,51.1433167 C85.8598713,50.148886 86.2762405,48.9529645 87.2706712,48.4721512 C88.2651018,47.991338 89.4610234,48.4077072 89.9418366,49.4021378 C91.3000361,52.2112018 92.2344208,56.1802403 93.9971056,65.4133945 C93.9982124,65.4191923 93.9993224,65.4250066 94.0004359,65.4308395 C98.3389861,71.0973269 104.625794,73.5776429 113.110785,72.8945495 C124.607615,71.9689846 129.355976,62.2898199 123.6717,55.8618132 C121.577797,53.4939437 118.553625,51.7604588 112.511984,49.1423022 C112.151779,48.9862065 111.781908,48.8268878 111.280864,48.6117658 C110.969804,48.4782543 110.969804,48.4782543 110.657085,48.344073 C110.343587,48.2095171 110.343587,48.2095171 110.028628,48.0741313 C109.001746,47.6324584 108.234832,47.2984511 107.479885,46.9620773 C101.512253,44.3031392 97.5297566,41.9588224 94.192888,38.7442191 C90.2591415,34.9546081 85.9000691,31.3901448 81.1147639,28.05114 C81.340819,28.4881177 81.5658102,28.9310987 81.7897426,29.3800788 C82.2827388,30.3685264 81.881096,31.5694738 80.8926485,32.0624699 C79.9042009,32.555466 78.7032535,32.1538233 78.2102574,31.1653757 C72.5580138,19.8327383 66.3549192,12.773975 59.6976757,9.9069565 C54.4107073,7.63006272 50.5887409,6.97833636 48.2161589,7.71419642 C49.5977058,8.91747367 50.9710165,10.2719482 52.3312435,11.7815095 C64.4343075,25.2133235 68.5420811,39.2898641 64.4889663,53.8104315 C64.1920005,54.8743324 63.0888,55.496056 62.0248992,55.1990902 C60.9609983,54.9021244 60.3392746,53.7989239 60.6362404,52.7350231 C64.2974789,39.6183802 60.5938164,26.9266497 49.359655,14.4591319 C42.0092861,6.30179348 34.6456387,3.37698213 27.9493983,4.49493954 C25.4164524,4.91782244 23.1137221,5.9269726 21.3251434,7.27647462 C19.9359119,8.32466492 19.0555648,9.46401294 18.9729548,9.96123216 C18.7919187,11.050865 17.7618381,11.7874282 16.6722052,11.6063922 C15.5825724,11.4253561 14.8460092,10.3952755 15.0270452,9.30564263 C15.2824189,7.76858081 16.4386525,6.12858894 18.1637021,4.67544322 C12.083401,4.23499334 8.03503272,7.06268179 5.61364579,13.2894634 C1.36571116,24.2133521 6.41585859,42.0661289 13.4815736,47.1746668 C15.7733281,48.8316137 17.6787759,49.9291395 19.1367126,50.5095563 Z M20.8784524,54.9923313 C18.3089129,54.8612068 15.1203962,53.2955064 11.137947,50.416181 C2.58179223,44.2300496 -3.01546066,24.4432003 1.88559894,11.8397508 C5.60329245,2.27941769 13.0619449,-1.22047879 23.5231784,1.57884102 C24.7224615,1.12095262 25.9913366,0.766480339 27.2907032,0.549547187 C32.9356024,-0.392885654 38.868017,0.995297761 44.7265313,5.00408668 C48.3209007,2.49173492 53.8472676,3.03224054 61.2798374,6.23316226 C66.8286416,8.62281864 71.9243306,13.3359714 76.6035153,20.3415267 C84.2906197,25.0172344 91.0797028,30.1909179 96.968047,35.8635087 C99.8955589,38.6837544 103.52927,40.822757 109.107842,43.3083454 C109.844117,43.6364 110.596718,43.9641733 111.609083,44.3996024 C111.921939,44.5340844 111.921939,44.5340844 112.234538,44.6682545 C112.546964,44.8023098 112.546964,44.8023098 112.858951,44.9362193 C113.363777,45.1529651 113.737364,45.3138848 114.102471,45.4721046 C120.673011,48.3194602 124.056906,50.2591418 126.668158,53.2120507 C134.656155,62.2451973 128.053339,75.7045244 113.43177,76.8816497 C106.185661,77.4650056 100.128184,75.9647058 95.3608616,72.3899961 C95.3990409,72.5735223 95.4401128,72.7702754 95.4846639,72.983158 C95.5393053,73.2442557 95.6104571,73.5834691 95.7439971,74.2201275 C95.853064,74.7404832 95.9389189,75.1514995 96.0244363,75.5633018 C96.5075004,77.8894596 96.8956675,79.8437225 97.2731657,81.8926786 C99.7464148,95.3167914 100.711198,107.491251 99.4799414,119.253883 C98.5816987,127.835112 95.7603266,133.333953 91.5051083,136.177551 C88.9168404,137.907191 86.2107853,138.434497 83.7916596,138.247926 C80.1053388,146.956403 73.6298225,151.844283 66.4597633,149.866216 C59.4497081,147.932292 55.6166206,142.283073 55.0297849,133.396568 C52.9346591,131.960335 51.0992293,130.023531 49.4963971,127.635151 C47.0478833,123.986622 45.2949662,119.647292 43.5534135,113.705581 C43.1710135,112.400934 41.1346113,105.155125 40.5439357,103.097471 C39.01017,97.7545049 37.602385,93.113901 36.1420739,88.6902413 C32.9571195,79.042191 29.8932236,71.6099063 26.9598138,66.9095202 C24.7160121,63.3141362 22.6892781,59.3416586 20.8784524,54.9923313 Z M71.1435306,80.2496958 C70.145367,79.7766808 69.7196499,78.5840549 70.1926649,77.5858913 C70.6656799,76.5877277 71.8583058,76.1620106 72.8564694,76.6350255 C75.9610838,78.1062564 80.245778,78.4874564 85.7179307,77.7079013 C86.8114596,77.5521187 87.8242267,78.3123123 87.9800093,79.4058412 C88.1357919,80.4993702 87.3755983,81.5121373 86.2820693,81.6679199 C80.0965661,82.549098 75.0479269,82.0999314 71.1435306,80.2496958 Z" id="Combined-Shape" fill="#FFFFFF" fill-rule="nonzero"></path>
            </g>
        </g>
    </g>
</svg>
